<svg id="Completo" xmlns="http://www.w3.org/2000/svg" viewBox="0 0 150 30.16"><defs><style>.cls-1{fill:#f15a24;}</style></defs><text/><text/><path class="cls-1" d="M2.17,17.86a1.62,1.62,0,0,1,.25-1.34L11.67,2.34A1.44,1.44,0,0,1,12,2a1.31,1.31,0,0,1,0,.63L9.42,14.37l2.34-.86L14,3A2.31,2.31,0,0,0,12.74.11,2.48,2.48,0,0,0,9.86,1.35L.61,15.53a3.19,3.19,0,0,0-.25,3.33A1.93,1.93,0,0,0,2,19.79H6.57l.49-1.93Z"/><path d="M20.32,11.29a1.93,1.93,0,0,0-1.67-.92H14.21l-.46,1.87,4.77.06a1.61,1.61,0,0,1-.26,1.33L9,27.82a1.33,1.33,0,0,1-.3.34,1.41,1.41,0,0,1,0-.62L11.28,15.7l-2.34.87L6.65,27.17A2.31,2.31,0,0,0,7.94,30a2.06,2.06,0,0,0,.68.12,2.64,2.64,0,0,0,2.2-1.35l9.25-14.19A3.19,3.19,0,0,0,20.32,11.29Z"/><path d="M29.88,19.48a1.6,1.6,0,0,0,1.18-.36,1.14,1.14,0,0,0,.34-.8.88.88,0,0,0-.28-.7,2.69,2.69,0,0,0-.77-.48l-.71-.31a13,13,0,0,1-1.76-.95,3.54,3.54,0,0,1-1.19-1.3,4.55,4.55,0,0,1-.43-2.1,4.13,4.13,0,0,1,1.13-3,4.19,4.19,0,0,1,3.14-1.14,5.58,5.58,0,0,1,1.76.25,2.62,2.62,0,0,1,1.21.74A1.85,1.85,0,0,1,34,10.58a2.22,2.22,0,0,1-.21,1,2.48,2.48,0,0,1-.49.71,3.52,3.52,0,0,0-1-.55,4.14,4.14,0,0,0-1.39-.23,1.83,1.83,0,0,0-1.13.28.85.85,0,0,0-.36.7.75.75,0,0,0,.23.55,2.5,2.5,0,0,0,.66.39l.91.38a6.09,6.09,0,0,1,2.48,1.72,4.42,4.42,0,0,1,.86,2.85,4.23,4.23,0,0,1-1.16,3.08A4.45,4.45,0,0,1,30,22.65a5.75,5.75,0,0,1-1.88-.29,3.13,3.13,0,0,1-1.34-.87,2.11,2.11,0,0,1-.5-1.41,2,2,0,0,1,.3-1.1,2.29,2.29,0,0,1,.63-.7,4.49,4.49,0,0,0,1.17.84A3.25,3.25,0,0,0,29.88,19.48Z"/><path d="M46.51,15.47a9.74,9.74,0,0,1-.71,3.92,5.54,5.54,0,0,1-1.93,2.43,5.09,5.09,0,0,1-5.57,0,5.53,5.53,0,0,1-1.92-2.43,9.75,9.75,0,0,1-.7-3.92,9.53,9.53,0,0,1,.72-3.92,5.65,5.65,0,0,1,1.94-2.42,5,5,0,0,1,5.5,0,5.66,5.66,0,0,1,1.95,2.42A9.53,9.53,0,0,1,46.51,15.47Zm-3.08,0a5.73,5.73,0,0,0-.63-3,1.93,1.93,0,0,0-3.4,0,5.64,5.64,0,0,0-.64,3,5.69,5.69,0,0,0,.64,3,1.95,1.95,0,0,0,3.4,0A5.8,5.8,0,0,0,43.43,15.47Z"/><path d="M56.37,10.7a2.25,2.25,0,0,1-.22,1,2.18,2.18,0,0,1-.52.68,4.76,4.76,0,0,0-.94-.65,2.48,2.48,0,0,0-1.18-.27,2.31,2.31,0,0,0-1.48.48,2.89,2.89,0,0,0-.92,1.39,6.33,6.33,0,0,0-.32,2.17,5,5,0,0,0,.76,3,2.49,2.49,0,0,0,2.11,1,2.66,2.66,0,0,0,1.19-.24,8,8,0,0,0,.94-.56,2,2,0,0,1,.45.74,2.91,2.91,0,0,1,.16,1,2.23,2.23,0,0,1-.2.94,1.7,1.7,0,0,1-.7.71,4.62,4.62,0,0,1-.88.36,4.51,4.51,0,0,1-1.37.18,5.1,5.1,0,0,1-4.8-3.1,9.69,9.69,0,0,1-.74-4.06,9.45,9.45,0,0,1,.72-3.91,5.56,5.56,0,0,1,1.94-2.43,4.66,4.66,0,0,1,2.7-.84,4.57,4.57,0,0,1,1.78.31A2.59,2.59,0,0,1,56,9.47,2,2,0,0,1,56.37,10.7Z"/><path d="M61,17.54H58V8.69l.61-.12a3.56,3.56,0,0,1,.78-.08,1.65,1.65,0,0,1,1.23.38A2.11,2.11,0,0,1,61,10.34Zm-3-5.15h3v9.83a3.8,3.8,0,0,1-.58.14,5.42,5.42,0,0,1-.81.06A1.58,1.58,0,0,1,58.35,22,2.19,2.19,0,0,1,58,20.57Z"/><path d="M67.58,12h-.1c-.11.42-.22.87-.35,1.36s-.25,1-.39,1.55-.27,1.1-.39,1.68L66,19.12q-.1.45-.18.87c-.05.29-.1.55-.15.81s-.1.49-.15.73-.09.47-.14.69l-.49.18a2.13,2.13,0,0,1-.65.09,1.88,1.88,0,0,1-1.29-.39A1.41,1.41,0,0,1,62.49,21a3.38,3.38,0,0,1,.07-.63c0-.2.1-.45.16-.73.09-.48.23-1.09.41-1.84s.38-1.56.61-2.43.44-1.72.66-2.55L65,10.6c.18-.67.32-1.15.41-1.47a3.38,3.38,0,0,1,.89-.42,3.8,3.8,0,0,1,1.18-.2A3.58,3.58,0,0,1,69,8.83a1.5,1.5,0,0,1,.83,1q.32,1.14.66,2.67c.24,1,.48,2.08.72,3.18s.48,2.19.71,3.24.43,2,.6,2.82a1.71,1.71,0,0,1-.61.49,2.28,2.28,0,0,1-1,.2,1.47,1.47,0,0,1-1.16-.37A2.33,2.33,0,0,1,69.31,21l-.43-2.14-.34-2.29c-.12-.58-.23-1.14-.35-1.68l-.32-1.52C67.77,12.86,67.67,12.41,67.58,12Zm-2.89,7.43,1.18-3h3.76l.36,3Z"/><path d="M76.94,17.54h-3V8.69l.61-.12a3.56,3.56,0,0,1,.78-.08,1.65,1.65,0,0,1,1.23.38,2.11,2.11,0,0,1,.38,1.47Zm-3-5.15h3v9.72l-1.4.2a1.39,1.39,0,0,1-1.17-.56,2.44,2.44,0,0,1-.43-1.51Zm1.6,9.92V19.17h5.32a3.47,3.47,0,0,1,.22.65,3.33,3.33,0,0,1,.1.86,2.24,2.24,0,0,1-.27,1.23.85.85,0,0,1-.75.4Z"/><path d="M85.72,17.54h-3V8.69l.61-.12a3.56,3.56,0,0,1,.78-.08,1.65,1.65,0,0,1,1.23.38,2.11,2.11,0,0,1,.38,1.47Zm-3-5.15h3v9.83a3.8,3.8,0,0,1-.58.14,5.42,5.42,0,0,1-.81.06A1.58,1.58,0,0,1,83.08,22a2.19,2.19,0,0,1-.36-1.44Z"/><path d="M88.17,18l6-9.29H95a3,3,0,0,1,.75,2.14,3.22,3.22,0,0,1-.19,1.1,5.89,5.89,0,0,1-.51,1l-6,9.3h-1a2.63,2.63,0,0,1-.48-.85,3.87,3.87,0,0,1-.19-1.23A3.17,3.17,0,0,1,87.64,19,5.61,5.61,0,0,1,88.17,18Zm6.31-9.29-1.25,3.19H87.89a4.62,4.62,0,0,1-.22-.66,3.43,3.43,0,0,1-.1-.88,2.1,2.1,0,0,1,.29-1.25.92.92,0,0,1,.79-.4ZM88.42,22.25,90,19.06h5.58a4,4,0,0,1,.22.67,3.46,3.46,0,0,1,.1.89,2.14,2.14,0,0,1-.28,1.24.91.91,0,0,1-.78.39Z"/><path d="M102,12h-.11c-.1.42-.21.87-.34,1.36s-.25,1-.39,1.55-.27,1.1-.4,1.68l-.37,2.52q-.11.45-.18.87c0,.29-.1.55-.16.81s-.09.49-.14.73-.09.47-.14.69l-.49.18a2.13,2.13,0,0,1-.65.09,1.86,1.86,0,0,1-1.29-.39A1.41,1.41,0,0,1,96.89,21a3.38,3.38,0,0,1,.07-.63c.05-.2.1-.45.16-.73.09-.48.22-1.09.41-1.84s.38-1.56.61-2.43.44-1.72.66-2.55l.61-2.24c.18-.67.32-1.15.41-1.47a3.23,3.23,0,0,1,.89-.42,3.8,3.8,0,0,1,1.18-.2,3.5,3.5,0,0,1,1.52.32,1.49,1.49,0,0,1,.84,1q.31,1.14.66,2.67c.24,1,.48,2.08.72,3.18s.48,2.19.71,3.24.43,2,.6,2.82a1.67,1.67,0,0,1-.62.49,2.21,2.21,0,0,1-1,.2,1.47,1.47,0,0,1-1.16-.37,2.33,2.33,0,0,1-.48-1.13l-.43-2.14-.34-2.29c-.12-.58-.23-1.14-.35-1.68l-.32-1.52C102.17,12.86,102.07,12.41,102,12Zm-2.9,7.43,1.19-3H104l.36,3Z"/><path class="cls-1" d="M111.77,18.05V10a1.1,1.1,0,0,1,.2-.72,1.54,1.54,0,0,1,.53-.41,5.09,5.09,0,0,1,1.39-.39,9.84,9.84,0,0,1,1.44-.13,4.74,4.74,0,0,1,3.6,1.32,5,5,0,0,1,1.26,3.57,5.61,5.61,0,0,1-.55,2.53,4.11,4.11,0,0,1-1.54,1.68,4.44,4.44,0,0,1-2.35.6Zm1.61,4.37a1.57,1.57,0,0,1-1.25-.41,2.19,2.19,0,0,1-.36-1.44V16.36h3v5.86a3.51,3.51,0,0,1-.58.14A5.29,5.29,0,0,1,113.38,22.42ZM114.74,15h.83a1.48,1.48,0,0,0,1.13-.46,1.81,1.81,0,0,0,.44-1.3,1.92,1.92,0,0,0-.4-1.31,1.49,1.49,0,0,0-1.17-.45h-.46a1.64,1.64,0,0,0-.37,0Z"/><path class="cls-1" d="M124.7,17.54h-3V8.69l.61-.12a3.56,3.56,0,0,1,.78-.08,1.65,1.65,0,0,1,1.23.38,2.12,2.12,0,0,1,.37,1.47Zm-3-5.15h3v9.72l-1.4.2a1.36,1.36,0,0,1-1.16-.56,2.38,2.38,0,0,1-.43-1.51Zm1.59,9.92V19.17h5.32a3.4,3.4,0,0,1,.23.65,3.83,3.83,0,0,1,.1.86,2.24,2.24,0,0,1-.27,1.23.88.88,0,0,1-.76.4Z"/><path class="cls-1" d="M133.26,16.54h-3V8.69l.6-.12a3.56,3.56,0,0,1,.78-.08,1.69,1.69,0,0,1,1.24.38,2.12,2.12,0,0,1,.37,1.47Zm1.63,6.11a4.55,4.55,0,0,1-2.48-.67,4.33,4.33,0,0,1-1.59-1.88,6.6,6.6,0,0,1-.55-2.8V15.94h3v1.29a2.68,2.68,0,0,0,.46,1.66,1.43,1.43,0,0,0,2.34,0,2.75,2.75,0,0,0,.45-1.66V15.94h3V17.3a6.6,6.6,0,0,1-.56,2.8A4.33,4.33,0,0,1,137.36,22,4.49,4.49,0,0,1,134.89,22.65Zm4.62-6.07h-3V8.69l.61-.12a3.56,3.56,0,0,1,.78-.08,1.65,1.65,0,0,1,1.23.38,2.11,2.11,0,0,1,.38,1.47Z"/><path class="cls-1" d="M144.87,19.48a1.6,1.6,0,0,0,1.18-.36,1.1,1.1,0,0,0,.34-.8.88.88,0,0,0-.28-.7,2.77,2.77,0,0,0-.76-.48l-.72-.31a13,13,0,0,1-1.76-.95,3.54,3.54,0,0,1-1.19-1.3,4.55,4.55,0,0,1-.43-2.1,4.13,4.13,0,0,1,1.13-3,4.19,4.19,0,0,1,3.14-1.14,5.58,5.58,0,0,1,1.76.25,2.62,2.62,0,0,1,1.21.74,1.85,1.85,0,0,1,.45,1.28,2.22,2.22,0,0,1-.21,1,2.48,2.48,0,0,1-.49.71,3.52,3.52,0,0,0-1-.55,4.14,4.14,0,0,0-1.39-.23,1.83,1.83,0,0,0-1.13.28.85.85,0,0,0-.36.7.75.75,0,0,0,.23.55,2.5,2.5,0,0,0,.66.39l.91.38a6.09,6.09,0,0,1,2.48,1.72,4.42,4.42,0,0,1,.86,2.85,4.23,4.23,0,0,1-1.16,3.08,4.45,4.45,0,0,1-3.36,1.2,5.8,5.8,0,0,1-1.88-.29,3.13,3.13,0,0,1-1.34-.87,2.11,2.11,0,0,1-.5-1.41,2,2,0,0,1,.3-1.1,2.29,2.29,0,0,1,.63-.7,4.49,4.49,0,0,0,1.17.84A3.25,3.25,0,0,0,144.87,19.48Z"/></svg>