<svg id="Camada_1" data-name="Camada 1" xmlns="http://www.w3.org/2000/svg" viewBox="0 0 200 40.21"><defs><style>.cls-1{fill:#f15a24;}.cls-2{fill:#fff;}</style></defs><text/><text/><path class="cls-1" d="M2.89,23.81A2.15,2.15,0,0,1,3.23,22L15.56,3.12a2,2,0,0,1,.4-.46,1.74,1.74,0,0,1,0,.83L12.56,19.16,15.68,18l3-14C19.15,1.91,18.16.56,17,.15A3.29,3.29,0,0,0,13.15,1.8L.81,20.71a4.26,4.26,0,0,0-.33,4.44,2.58,2.58,0,0,0,2.23,1.23H8.76l.65-2.57Z"/><path class="cls-2" d="M27.1,15.06a2.59,2.59,0,0,0-2.24-1.23H19l-.61,2.49,6.35.08a2.15,2.15,0,0,1-.34,1.78L12,37.09a2,2,0,0,1-.41.46,1.78,1.78,0,0,1,0-.83L15,20.94l-3.11,1.15L8.87,36.22c-.45,2.08.54,3.43,1.72,3.84a2.83,2.83,0,0,0,.9.15,3.51,3.51,0,0,0,2.94-1.8L26.76,19.5A4.27,4.27,0,0,0,27.1,15.06Z"/><path class="cls-2" d="M39.83,26a2.13,2.13,0,0,0,1.58-.47,1.52,1.52,0,0,0,.45-1.07,1.24,1.24,0,0,0-.36-.94,3.73,3.73,0,0,0-1-.64l-1-.41a16.25,16.25,0,0,1-2.33-1.27,4.59,4.59,0,0,1-1.59-1.74A5.91,5.91,0,0,1,35,16.64a5.53,5.53,0,0,1,1.49-4,5.64,5.64,0,0,1,4.19-1.52,7.67,7.67,0,0,1,2.35.33,3.55,3.55,0,0,1,1.62,1,2.48,2.48,0,0,1,.6,1.71A3,3,0,0,1,45,15.42a3.21,3.21,0,0,1-.66,1A4.84,4.84,0,0,0,43,15.64a5.48,5.48,0,0,0-1.85-.31,2.5,2.5,0,0,0-1.5.37,1.14,1.14,0,0,0-.48.94.93.93,0,0,0,.31.73,3,3,0,0,0,.88.52l1.21.5a8.18,8.18,0,0,1,3.3,2.31A5.85,5.85,0,0,1,46,24.49a5.71,5.71,0,0,1-1.54,4.12A6,6,0,0,1,40,30.2a7.6,7.6,0,0,1-2.51-.39,4,4,0,0,1-1.78-1.16A2.79,2.79,0,0,1,35,26.78a2.64,2.64,0,0,1,.39-1.47,3.4,3.4,0,0,1,.84-.94,6.13,6.13,0,0,0,1.56,1.13A4.32,4.32,0,0,0,39.83,26Z"/><path class="cls-2" d="M62,20.62a13,13,0,0,1-.94,5.24,7.43,7.43,0,0,1-2.58,3.24,6.81,6.81,0,0,1-7.42,0,7.33,7.33,0,0,1-2.56-3.24,13,13,0,0,1-.94-5.24,12.59,12.59,0,0,1,1-5.21,7.43,7.43,0,0,1,2.59-3.23,6.66,6.66,0,0,1,7.33,0,7.4,7.4,0,0,1,2.61,3.23A12.6,12.6,0,0,1,62,20.62Zm-4.1,0a7.6,7.6,0,0,0-.85-4,2.58,2.58,0,0,0-4.53,0,7.55,7.55,0,0,0-.85,4,7.66,7.66,0,0,0,.85,4.05A2.59,2.59,0,0,0,54.8,26a2.55,2.55,0,0,0,2.26-1.33A7.66,7.66,0,0,0,57.91,20.62Z"/><path class="cls-2" d="M75.16,14.26a2.79,2.79,0,0,1-.3,1.32,2.89,2.89,0,0,1-.68.91,6.1,6.1,0,0,0-1.26-.86,3.31,3.31,0,0,0-1.57-.36,3.13,3.13,0,0,0-2,.64,3.94,3.94,0,0,0-1.23,1.84,8.88,8.88,0,0,0-.42,2.9,6.67,6.67,0,0,0,1,4A3.32,3.32,0,0,0,71.55,26a3.5,3.5,0,0,0,1.59-.32,9.73,9.73,0,0,0,1.24-.75,2.72,2.72,0,0,1,.61,1,4,4,0,0,1,.21,1.36,2.83,2.83,0,0,1-.27,1.25,2.15,2.15,0,0,1-.94.95,5.89,5.89,0,0,1-1.16.48A6.06,6.06,0,0,1,71,30.2a6.75,6.75,0,0,1-6.4-4.14,12.76,12.76,0,0,1-1-5.41,12.59,12.59,0,0,1,1-5.21,7.52,7.52,0,0,1,2.59-3.24,6.2,6.2,0,0,1,3.59-1.12,6.07,6.07,0,0,1,2.38.42,3.43,3.43,0,0,1,1.5,1.13A2.67,2.67,0,0,1,75.16,14.26Z"/><path class="cls-2" d="M81.32,23.39h-4V11.59l.81-.17a5.28,5.28,0,0,1,1-.1,2.31,2.31,0,0,1,1.65.5,2.87,2.87,0,0,1,.5,2Zm-4-6.87h4V29.63a5.14,5.14,0,0,1-.78.18,6.26,6.26,0,0,1-1.07.09,2.12,2.12,0,0,1-1.67-.55,3,3,0,0,1-.47-1.92Z"/><path class="cls-2" d="M90.1,16H90l-.46,1.81c-.17.65-.34,1.34-.52,2.06s-.36,1.48-.53,2.25L88,25.5c-.09.4-.17.78-.24,1.16s-.14.73-.21,1.07-.13.66-.19,1-.12.62-.18.92l-.66.24a2.86,2.86,0,0,1-.87.12,2.5,2.5,0,0,1-1.71-.52A1.86,1.86,0,0,1,83.33,28a4,4,0,0,1,.09-.84c.06-.27.13-.6.2-1,.13-.63.31-1.45.55-2.45s.52-2.08.81-3.24.59-2.29.89-3.4l.81-3,.55-2a3.89,3.89,0,0,1,1.19-.56A4.85,4.85,0,0,1,90,11.35a4.55,4.55,0,0,1,2,.43,2,2,0,0,1,1.12,1.38c.27,1,.57,2.2.88,3.55s.63,2.78,1,4.26.64,2.91.94,4.31.57,2.65.8,3.76a2.13,2.13,0,0,1-.82.65,2.9,2.9,0,0,1-1.3.27,2,2,0,0,1-1.55-.49,3.27,3.27,0,0,1-.64-1.5l-.57-2.86-.46-3.06c-.15-.77-.3-1.52-.45-2.23s-.3-1.39-.44-2S90.23,16.55,90.1,16Zm-3.85,9.9,1.57-4h5l.48,4Z"/><path class="cls-2" d="M102.59,23.39h-4V11.59l.81-.17a5.46,5.46,0,0,1,1-.1,2.27,2.27,0,0,1,1.64.5,2.81,2.81,0,0,1,.51,2Zm-4-6.87h4v13l-1.87.27A1.87,1.87,0,0,1,99.16,29a3.25,3.25,0,0,1-.57-2Zm2.13,13.23V25.56h7.09a4.22,4.22,0,0,1,.3.86,4.73,4.73,0,0,1,.14,1.16,2.93,2.93,0,0,1-.37,1.63,1.15,1.15,0,0,1-1,.54Z"/><path class="cls-2" d="M114.29,23.39h-4V11.59l.81-.17a5.38,5.38,0,0,1,1-.1,2.27,2.27,0,0,1,1.64.5,2.87,2.87,0,0,1,.5,2Zm-4-6.87h4V29.63a5,5,0,0,1-.77.18,6.38,6.38,0,0,1-1.08.09,2.1,2.1,0,0,1-1.66-.55,3,3,0,0,1-.48-1.92Z"/><path class="cls-2" d="M117.56,24l8-12.39h1.15a4,4,0,0,1,1,2.85,4.38,4.38,0,0,1-.26,1.47,6.81,6.81,0,0,1-.68,1.38l-7.94,12.4h-1.39a3.19,3.19,0,0,1-.64-1.13,4.81,4.81,0,0,1-.25-1.63,4.19,4.19,0,0,1,.3-1.52A8.28,8.28,0,0,1,117.56,24ZM126,11.56l-1.67,4.25h-7.12a5.27,5.27,0,0,1-.3-.88,4.71,4.71,0,0,1-.13-1.17,2.94,2.94,0,0,1,.38-1.67,1.22,1.22,0,0,1,1-.53Zm-8.08,18.1,2.1-4.25h7.44a6.22,6.22,0,0,1,.29.89,4.86,4.86,0,0,1,.14,1.19,2.87,2.87,0,0,1-.38,1.65,1.19,1.19,0,0,1-1,.52Z"/><path class="cls-2" d="M136,16h-.14c-.13.55-.29,1.15-.45,1.81s-.35,1.34-.53,2.06-.36,1.48-.52,2.25l-.51,3.36c-.09.4-.17.78-.23,1.16s-.14.73-.21,1.07-.13.66-.19,1-.13.62-.19.92c-.19.08-.42.16-.66.24a2.77,2.77,0,0,1-.87.12,2.5,2.5,0,0,1-1.71-.52,1.86,1.86,0,0,1-.57-1.44,4,4,0,0,1,.09-.84c.06-.27.13-.6.21-1,.12-.63.3-1.45.55-2.45s.51-2.08.81-3.24.59-2.29.89-3.4.56-2.11.81-3,.42-1.53.54-2a4,4,0,0,1,1.19-.56,4.9,4.9,0,0,1,1.58-.27,4.58,4.58,0,0,1,2,.43A2,2,0,0,1,139,13.16c.28,1,.57,2.2.88,3.55s.63,2.78,1,4.26.64,2.91.95,4.31.57,2.65.8,3.76a2.21,2.21,0,0,1-.82.65,2.93,2.93,0,0,1-1.3.27,2,2,0,0,1-1.56-.49,3.27,3.27,0,0,1-.64-1.5l-.57-2.86-.45-3.06c-.15-.77-.31-1.52-.46-2.23s-.3-1.39-.43-2S136.09,16.55,136,16Zm-3.86,9.9,1.58-4h5l.48,4Z"/><path class="cls-1" d="M149,24.07V13.34a1.48,1.48,0,0,1,.28-1,2.14,2.14,0,0,1,.7-.55,7.38,7.38,0,0,1,1.85-.52,12.81,12.81,0,0,1,1.92-.16,6.33,6.33,0,0,1,4.8,1.75,6.6,6.6,0,0,1,1.68,4.76,7.31,7.31,0,0,1-.73,3.37,5.45,5.45,0,0,1-2.05,2.25,6,6,0,0,1-3.13.8Zm2.15,5.83a2.12,2.12,0,0,1-1.67-.55,3,3,0,0,1-.48-1.92V21.81h4v7.82a5.14,5.14,0,0,1-.78.18A6.35,6.35,0,0,1,151.17,29.9ZM153,20h1.1a2,2,0,0,0,1.52-.61,2.47,2.47,0,0,0,.58-1.74,2.55,2.55,0,0,0-.54-1.74,2,2,0,0,0-1.56-.61l-.61,0a2.89,2.89,0,0,0-.49.07Z"/><path class="cls-1" d="M166.27,23.39h-4V11.59l.81-.17a5.38,5.38,0,0,1,1-.1,2.27,2.27,0,0,1,1.64.5,2.82,2.82,0,0,1,.5,2Zm-4-6.87h4v13l-1.87.27a1.87,1.87,0,0,1-1.55-.74,3.25,3.25,0,0,1-.57-2Zm2.12,13.23V25.56h7.1a4.93,4.93,0,0,1,.3.86,4.74,4.74,0,0,1,.13,1.16,2.94,2.94,0,0,1-.36,1.63,1.16,1.16,0,0,1-1,.54Z"/><path class="cls-1" d="M177.68,22.05h-4V11.59l.81-.17a5.38,5.38,0,0,1,1-.1,2.27,2.27,0,0,1,1.64.5,2.82,2.82,0,0,1,.5,2Zm2.17,8.15a5.91,5.91,0,0,1-3.3-.9,5.77,5.77,0,0,1-2.12-2.49,8.93,8.93,0,0,1-.74-3.75V21.25h4V23a3.63,3.63,0,0,0,.61,2.22,1.91,1.91,0,0,0,3.12,0A3.63,3.63,0,0,0,182,23V21.25h4v1.81a8.93,8.93,0,0,1-.74,3.75,5.7,5.7,0,0,1-2.12,2.49A5.91,5.91,0,0,1,179.85,30.2ZM186,22.11h-4V11.59l.81-.17a5.38,5.38,0,0,1,1-.1,2.27,2.27,0,0,1,1.64.5,2.87,2.87,0,0,1,.5,2Z"/><path class="cls-1" d="M193.15,26a2.13,2.13,0,0,0,1.58-.47,1.53,1.53,0,0,0,.46-1.07,1.24,1.24,0,0,0-.37-.94,3.73,3.73,0,0,0-1-.64l-1-.41a16.25,16.25,0,0,1-2.33-1.27,4.59,4.59,0,0,1-1.59-1.74,5.91,5.91,0,0,1-.57-2.79,5.53,5.53,0,0,1,1.49-4A5.64,5.64,0,0,1,194,11.08a7.67,7.67,0,0,1,2.35.33,3.55,3.55,0,0,1,1.62,1,2.47,2.47,0,0,1,.59,1.71,3,3,0,0,1-.27,1.31,3.21,3.21,0,0,1-.66,1,4.7,4.7,0,0,0-1.35-.73,5.48,5.48,0,0,0-1.85-.31,2.5,2.5,0,0,0-1.5.37,1.14,1.14,0,0,0-.48.94.93.93,0,0,0,.31.73,3,3,0,0,0,.88.52l1.21.5a8.18,8.18,0,0,1,3.3,2.31,5.79,5.79,0,0,1,1.15,3.79,5.71,5.71,0,0,1-1.54,4.12,6,6,0,0,1-4.49,1.59,7.6,7.6,0,0,1-2.51-.39A4,4,0,0,1,189,28.65a2.79,2.79,0,0,1-.66-1.87,2.64,2.64,0,0,1,.39-1.47,3.4,3.4,0,0,1,.84-.94,6.13,6.13,0,0,0,1.56,1.13A4.32,4.32,0,0,0,193.15,26Z"/></svg>